<?xml version="1.0" encoding="UTF-8" standalone="no"?>
<!DOCTYPE svg PUBLIC "-//W3C//DTD SVG 1.1//EN"
 "http://www.w3.org/Graphics/SVG/1.1/DTD/svg11.dtd">
<!-- Generated by graphviz version 2.43.0 (0)
 -->
<!-- Title: snakemake_dag Pages: 1 -->
<svg width="389pt" height="908pt"
 viewBox="0.00 0.00 389.00 908.00" xmlns="http://www.w3.org/2000/svg" xmlns:xlink="http://www.w3.org/1999/xlink">
<g id="graph0" class="graph" transform="scale(1 1) rotate(0) translate(4 904)">
<title>snakemake_dag</title>
<polygon fill="white" stroke="transparent" points="-4,4 -4,-904 385,-904 385,4 -4,4"/>
<!-- 0 -->
<g id="node1" class="node">
<title>0</title>
<path fill="none" stroke="#d8d356" stroke-width="2" d="M165,-36C165,-36 38,-36 38,-36 32,-36 26,-30 26,-24 26,-24 26,-12 26,-12 26,-6 32,0 38,0 38,0 165,0 165,0 171,0 177,-6 177,-12 177,-12 177,-24 177,-24 177,-30 171,-36 165,-36"/>
<text text-anchor="middle" x="101.5" y="-15.5" font-family="sans" font-size="10.00">feature_selection_workflow</text>
</g>
<!-- 1 -->
<g id="node2" class="node">
<title>1</title>
<path fill="none" stroke="#56d8a2" stroke-width="2" d="M116.5,-108C116.5,-108 86.5,-108 86.5,-108 80.5,-108 74.5,-102 74.5,-96 74.5,-96 74.5,-84 74.5,-84 74.5,-78 80.5,-72 86.5,-72 86.5,-72 116.5,-72 116.5,-72 122.5,-72 128.5,-78 128.5,-84 128.5,-84 128.5,-96 128.5,-96 128.5,-102 122.5,-108 116.5,-108"/>
<text text-anchor="middle" x="101.5" y="-87.5" font-family="sans" font-size="10.00">pca</text>
</g>
<!-- 1&#45;&gt;0 -->
<g id="edge1" class="edge">
<title>1&#45;&gt;0</title>
<path fill="none" stroke="grey" stroke-width="2" d="M101.5,-71.7C101.5,-63.98 101.5,-54.71 101.5,-46.11"/>
<polygon fill="grey" stroke="grey" stroke-width="2" points="105,-46.1 101.5,-36.1 98,-46.1 105,-46.1"/>
</g>
<!-- 2 -->
<g id="node3" class="node">
<title>2</title>
<path fill="none" stroke="#d85656" stroke-width="2" d="M191,-180C191,-180 12,-180 12,-180 6,-180 0,-174 0,-168 0,-168 0,-156 0,-156 0,-150 6,-144 12,-144 12,-144 191,-144 191,-144 197,-144 203,-150 203,-156 203,-156 203,-168 203,-168 203,-174 197,-180 191,-180"/>
<text text-anchor="middle" x="101.5" y="-159.5" font-family="sans" font-size="10.00">annotate_dataset_with_boruta_results</text>
</g>
<!-- 2&#45;&gt;1 -->
<g id="edge2" class="edge">
<title>2&#45;&gt;1</title>
<path fill="none" stroke="grey" stroke-width="2" d="M101.5,-143.7C101.5,-135.98 101.5,-126.71 101.5,-118.11"/>
<polygon fill="grey" stroke="grey" stroke-width="2" points="105,-118.1 101.5,-108.1 98,-118.1 105,-118.1"/>
</g>
<!-- 3 -->
<g id="node4" class="node">
<title>3</title>
<path fill="none" stroke="#5673d8" stroke-width="2" d="M190.5,-252C190.5,-252 106.5,-252 106.5,-252 100.5,-252 94.5,-246 94.5,-240 94.5,-240 94.5,-228 94.5,-228 94.5,-222 100.5,-216 106.5,-216 106.5,-216 190.5,-216 190.5,-216 196.5,-216 202.5,-222 202.5,-228 202.5,-228 202.5,-240 202.5,-240 202.5,-246 196.5,-252 190.5,-252"/>
<text text-anchor="middle" x="148.5" y="-231.5" font-family="sans" font-size="10.00">summarize_boruta</text>
</g>
<!-- 3&#45;&gt;2 -->
<g id="edge3" class="edge">
<title>3&#45;&gt;2</title>
<path fill="none" stroke="grey" stroke-width="2" d="M136.88,-215.7C131.36,-207.47 124.65,-197.48 118.57,-188.42"/>
<polygon fill="grey" stroke="grey" stroke-width="2" points="121.46,-186.46 112.98,-180.1 115.65,-190.36 121.46,-186.46"/>
</g>
<!-- 4 -->
<g id="node5" class="node">
<title>4</title>
<path fill="none" stroke="#56d863" stroke-width="2" d="M201.5,-324C201.5,-324 95.5,-324 95.5,-324 89.5,-324 83.5,-318 83.5,-312 83.5,-312 83.5,-300 83.5,-300 83.5,-294 89.5,-288 95.5,-288 95.5,-288 201.5,-288 201.5,-288 207.5,-288 213.5,-294 213.5,-300 213.5,-300 213.5,-312 213.5,-312 213.5,-318 207.5,-324 201.5,-324"/>
<text text-anchor="middle" x="148.5" y="-303.5" font-family="sans" font-size="10.00">merge_boruta_runs_CV</text>
</g>
<!-- 4&#45;&gt;3 -->
<g id="edge5" class="edge">
<title>4&#45;&gt;3</title>
<path fill="none" stroke="grey" stroke-width="2" d="M148.5,-287.7C148.5,-279.98 148.5,-270.71 148.5,-262.11"/>
<polygon fill="grey" stroke="grey" stroke-width="2" points="152,-262.1 148.5,-252.1 145,-262.1 152,-262.1"/>
</g>
<!-- 5 -->
<g id="node6" class="node">
<title>5</title>
<path fill="none" stroke="#d89556" stroke-width="2" d="M170,-396C170,-396 127,-396 127,-396 121,-396 115,-390 115,-384 115,-384 115,-372 115,-372 115,-366 121,-360 127,-360 127,-360 170,-360 170,-360 176,-360 182,-366 182,-372 182,-372 182,-384 182,-384 182,-390 176,-396 170,-396"/>
<text text-anchor="middle" x="148.5" y="-375.5" font-family="sans" font-size="10.00">boruta_CV</text>
</g>
<!-- 5&#45;&gt;4 -->
<g id="edge7" class="edge">
<title>5&#45;&gt;4</title>
<path fill="none" stroke="grey" stroke-width="2" d="M148.5,-359.7C148.5,-351.98 148.5,-342.71 148.5,-334.11"/>
<polygon fill="grey" stroke="grey" stroke-width="2" points="152,-334.1 148.5,-324.1 145,-334.1 152,-334.1"/>
</g>
<!-- 6 -->
<g id="node7" class="node">
<title>6</title>
<path fill="none" stroke="#56d8c1" stroke-width="2" d="M196.5,-468C196.5,-468 100.5,-468 100.5,-468 94.5,-468 88.5,-462 88.5,-456 88.5,-456 88.5,-444 88.5,-444 88.5,-438 94.5,-432 100.5,-432 100.5,-432 196.5,-432 196.5,-432 202.5,-432 208.5,-438 208.5,-444 208.5,-444 208.5,-456 208.5,-456 208.5,-462 202.5,-468 196.5,-468"/>
<text text-anchor="middle" x="148.5" y="-447.5" font-family="sans" font-size="10.00">prepare_CV_datasets</text>
</g>
<!-- 6&#45;&gt;5 -->
<g id="edge8" class="edge">
<title>6&#45;&gt;5</title>
<path fill="none" stroke="grey" stroke-width="2" d="M148.5,-431.7C148.5,-423.98 148.5,-414.71 148.5,-406.11"/>
<polygon fill="grey" stroke="grey" stroke-width="2" points="152,-406.1 148.5,-396.1 145,-406.1 152,-406.1"/>
</g>
<!-- 7 -->
<g id="node8" class="node">
<title>7</title>
<path fill="none" stroke="#bed856" stroke-width="2" d="M177.5,-540C177.5,-540 119.5,-540 119.5,-540 113.5,-540 107.5,-534 107.5,-528 107.5,-528 107.5,-516 107.5,-516 107.5,-510 113.5,-504 119.5,-504 119.5,-504 177.5,-504 177.5,-504 183.5,-504 189.5,-510 189.5,-516 189.5,-516 189.5,-528 189.5,-528 189.5,-534 183.5,-540 177.5,-540"/>
<text text-anchor="middle" x="148.5" y="-519.5" font-family="sans" font-size="10.00">get_residuals</text>
</g>
<!-- 7&#45;&gt;2 -->
<g id="edge4" class="edge">
<title>7&#45;&gt;2</title>
<path fill="none" stroke="grey" stroke-width="2" d="M117.9,-503.85C104.32,-494.81 89.24,-482.56 79.5,-468 56.72,-433.95 55.5,-419.97 55.5,-379 55.5,-379 55.5,-379 55.5,-305 55.5,-263.04 73.9,-217.36 87.43,-189.44"/>
<polygon fill="grey" stroke="grey" stroke-width="2" points="90.63,-190.86 91.97,-180.34 84.37,-187.73 90.63,-190.86"/>
</g>
<!-- 7&#45;&gt;6 -->
<g id="edge9" class="edge">
<title>7&#45;&gt;6</title>
<path fill="none" stroke="grey" stroke-width="2" d="M148.5,-503.7C148.5,-495.98 148.5,-486.71 148.5,-478.11"/>
<polygon fill="grey" stroke="grey" stroke-width="2" points="152,-478.1 148.5,-468.1 145,-478.1 152,-478.1"/>
</g>
<!-- 15 -->
<g id="node16" class="node">
<title>15</title>
<path fill="none" stroke="#d87556" stroke-width="2" d="M285.5,-468C285.5,-468 255.5,-468 255.5,-468 249.5,-468 243.5,-462 243.5,-456 243.5,-456 243.5,-444 243.5,-444 243.5,-438 249.5,-432 255.5,-432 255.5,-432 285.5,-432 285.5,-432 291.5,-432 297.5,-438 297.5,-444 297.5,-444 297.5,-456 297.5,-456 297.5,-462 291.5,-468 285.5,-468"/>
<text text-anchor="middle" x="270.5" y="-447.5" font-family="sans" font-size="10.00">boruta</text>
</g>
<!-- 7&#45;&gt;15 -->
<g id="edge18" class="edge">
<title>7&#45;&gt;15</title>
<path fill="none" stroke="grey" stroke-width="2" d="M178.34,-503.88C195.28,-494.16 216.61,-481.92 234.47,-471.67"/>
<polygon fill="grey" stroke="grey" stroke-width="2" points="236.53,-474.53 243.46,-466.51 233.05,-468.46 236.53,-474.53"/>
</g>
<!-- 8 -->
<g id="node9" class="node">
<title>8</title>
<path fill="none" stroke="#56d882" stroke-width="2" d="M169,-612C169,-612 128,-612 128,-612 122,-612 116,-606 116,-600 116,-600 116,-588 116,-588 116,-582 122,-576 128,-576 128,-576 169,-576 169,-576 175,-576 181,-582 181,-588 181,-588 181,-600 181,-600 181,-606 175,-612 169,-612"/>
<text text-anchor="middle" x="148.5" y="-591.5" font-family="sans" font-size="10.00">normalize</text>
</g>
<!-- 8&#45;&gt;7 -->
<g id="edge10" class="edge">
<title>8&#45;&gt;7</title>
<path fill="none" stroke="grey" stroke-width="2" d="M148.5,-575.7C148.5,-567.98 148.5,-558.71 148.5,-550.11"/>
<polygon fill="grey" stroke="grey" stroke-width="2" points="152,-550.1 148.5,-540.1 145,-550.1 152,-550.1"/>
</g>
<!-- 9 -->
<g id="node10" class="node">
<title>9</title>
<path fill="none" stroke="#5692d8" stroke-width="2" d="M202,-684C202,-684 95,-684 95,-684 89,-684 83,-678 83,-672 83,-672 83,-660 83,-660 83,-654 89,-648 95,-648 95,-648 202,-648 202,-648 208,-648 214,-654 214,-660 214,-660 214,-672 214,-672 214,-678 208,-684 202,-684"/>
<text text-anchor="middle" x="148.5" y="-663.5" font-family="sans" font-size="10.00">split_imputed_datasets</text>
</g>
<!-- 9&#45;&gt;8 -->
<g id="edge11" class="edge">
<title>9&#45;&gt;8</title>
<path fill="none" stroke="grey" stroke-width="2" d="M148.5,-647.7C148.5,-639.98 148.5,-630.71 148.5,-622.11"/>
<polygon fill="grey" stroke="grey" stroke-width="2" points="152,-622.1 148.5,-612.1 145,-622.1 152,-622.1"/>
</g>
<!-- 10 -->
<g id="node11" class="node">
<title>10</title>
<path fill="none" stroke="#9fd856" stroke-width="2" d="M191.5,-756C191.5,-756 161.5,-756 161.5,-756 155.5,-756 149.5,-750 149.5,-744 149.5,-744 149.5,-732 149.5,-732 149.5,-726 155.5,-720 161.5,-720 161.5,-720 191.5,-720 191.5,-720 197.5,-720 203.5,-726 203.5,-732 203.5,-732 203.5,-744 203.5,-744 203.5,-750 197.5,-756 191.5,-756"/>
<text text-anchor="middle" x="176.5" y="-735.5" font-family="sans" font-size="10.00">impute</text>
</g>
<!-- 10&#45;&gt;9 -->
<g id="edge13" class="edge">
<title>10&#45;&gt;9</title>
<path fill="none" stroke="grey" stroke-width="2" d="M169.58,-719.7C166.43,-711.81 162.62,-702.3 159.12,-693.55"/>
<polygon fill="grey" stroke="grey" stroke-width="2" points="162.31,-692.09 155.34,-684.1 155.81,-694.69 162.31,-692.09"/>
</g>
<!-- 11 -->
<g id="node12" class="node">
<title>11</title>
<path fill="none" stroke="#56d0d8" stroke-width="2" d="M196,-828C196,-828 47,-828 47,-828 41,-828 35,-822 35,-816 35,-816 35,-804 35,-804 35,-798 41,-792 47,-792 47,-792 196,-792 196,-792 202,-792 208,-798 208,-804 208,-804 208,-816 208,-816 208,-822 202,-828 196,-828"/>
<text text-anchor="middle" x="121.5" y="-807.5" font-family="sans" font-size="10.00">prepare_dataset_for_imputation</text>
</g>
<!-- 11&#45;&gt;9 -->
<g id="edge12" class="edge">
<title>11&#45;&gt;9</title>
<path fill="none" stroke="grey" stroke-width="2" d="M124.76,-791.87C129.36,-767.67 137.81,-723.21 143.29,-694.39"/>
<polygon fill="grey" stroke="grey" stroke-width="2" points="146.8,-694.67 145.23,-684.19 139.93,-693.36 146.8,-694.67"/>
</g>
<!-- 11&#45;&gt;10 -->
<g id="edge15" class="edge">
<title>11&#45;&gt;10</title>
<path fill="none" stroke="grey" stroke-width="2" d="M135.1,-791.7C141.62,-783.39 149.57,-773.28 156.75,-764.14"/>
<polygon fill="grey" stroke="grey" stroke-width="2" points="159.63,-766.13 163.06,-756.1 154.13,-761.81 159.63,-766.13"/>
</g>
<!-- 12 -->
<g id="node13" class="node">
<title>12</title>
<path fill="none" stroke="#56b1d8" stroke-width="2" d="M157.5,-900C157.5,-900 85.5,-900 85.5,-900 79.5,-900 73.5,-894 73.5,-888 73.5,-888 73.5,-876 73.5,-876 73.5,-870 79.5,-864 85.5,-864 85.5,-864 157.5,-864 157.5,-864 163.5,-864 169.5,-870 169.5,-876 169.5,-876 169.5,-888 169.5,-888 169.5,-894 163.5,-900 157.5,-900"/>
<text text-anchor="middle" x="121.5" y="-879.5" font-family="sans" font-size="10.00">remove_outliers</text>
</g>
<!-- 12&#45;&gt;11 -->
<g id="edge16" class="edge">
<title>12&#45;&gt;11</title>
<path fill="none" stroke="grey" stroke-width="2" d="M121.5,-863.7C121.5,-855.98 121.5,-846.71 121.5,-838.11"/>
<polygon fill="grey" stroke="grey" stroke-width="2" points="125,-838.1 121.5,-828.1 118,-838.1 125,-838.1"/>
</g>
<!-- 13 -->
<g id="node14" class="node">
<title>13</title>
<path fill="none" stroke="#d8b456" stroke-width="2" d="M369,-828C369,-828 238,-828 238,-828 232,-828 226,-822 226,-816 226,-816 226,-804 226,-804 226,-798 232,-792 238,-792 238,-792 369,-792 369,-792 375,-792 381,-798 381,-804 381,-804 381,-816 381,-816 381,-822 375,-828 369,-828"/>
<text text-anchor="middle" x="303.5" y="-807.5" font-family="sans" font-size="10.00">download_imputation_script</text>
</g>
<!-- 13&#45;&gt;10 -->
<g id="edge14" class="edge">
<title>13&#45;&gt;10</title>
<path fill="none" stroke="grey" stroke-width="2" d="M272.43,-791.88C254.38,-781.93 231.56,-769.35 212.7,-758.95"/>
<polygon fill="grey" stroke="grey" stroke-width="2" points="214.24,-755.81 203.8,-754.05 210.87,-761.94 214.24,-755.81"/>
</g>
<!-- 14 -->
<g id="node15" class="node">
<title>14</title>
<path fill="none" stroke="#68d856" stroke-width="2" d="M331,-324C331,-324 244,-324 244,-324 238,-324 232,-318 232,-312 232,-312 232,-300 232,-300 232,-294 238,-288 244,-288 244,-288 331,-288 331,-288 337,-288 343,-294 343,-300 343,-300 343,-312 343,-312 343,-318 337,-324 331,-324"/>
<text text-anchor="middle" x="287.5" y="-303.5" font-family="sans" font-size="10.00">merge_boruta_runs</text>
</g>
<!-- 14&#45;&gt;3 -->
<g id="edge6" class="edge">
<title>14&#45;&gt;3</title>
<path fill="none" stroke="grey" stroke-width="2" d="M253.5,-287.88C234.9,-278.51 211.67,-266.81 191.79,-256.8"/>
<polygon fill="grey" stroke="grey" stroke-width="2" points="193.14,-253.56 182.63,-252.19 189.99,-259.81 193.14,-253.56"/>
</g>
<!-- 15&#45;&gt;14 -->
<g id="edge17" class="edge">
<title>15&#45;&gt;14</title>
<path fill="none" stroke="grey" stroke-width="2" d="M272.55,-431.87C275.45,-407.67 280.77,-363.21 284.22,-334.39"/>
<polygon fill="grey" stroke="grey" stroke-width="2" points="287.73,-334.53 285.44,-324.19 280.78,-333.7 287.73,-334.53"/>
</g>
</g>
</svg>
