<?xml version="1.0" encoding="UTF-8" standalone="no"?>
<!DOCTYPE svg PUBLIC "-//W3C//DTD SVG 1.1//EN"
 "http://www.w3.org/Graphics/SVG/1.1/DTD/svg11.dtd">
<!-- Generated by graphviz version 12.2.1 (0)
 -->
<!-- Title: snakemake_dag Pages: 1 -->
<svg width="478pt" height="980pt"
 viewBox="0.00 0.00 477.75 980.00" xmlns="http://www.w3.org/2000/svg" xmlns:xlink="http://www.w3.org/1999/xlink">
<g id="graph0" class="graph" transform="scale(1 1) rotate(0) translate(4 976)">
<title>snakemake_dag</title>
<polygon fill="white" stroke="none" points="-4,4 -4,-976 473.75,-976 473.75,4 -4,4"/>
<!-- 0 -->
<g id="node1" class="node">
<title>0</title>
<path fill="none" stroke="#d85656" stroke-width="2" d="M265,-36C265,-36 235,-36 235,-36 229,-36 223,-30 223,-24 223,-24 223,-12 223,-12 223,-6 229,0 235,0 235,0 265,0 265,0 271,0 277,-6 277,-12 277,-12 277,-24 277,-24 277,-30 271,-36 265,-36"/>
<text text-anchor="middle" x="250" y="-15.62" font-family="sans" font-size="10.00">all</text>
</g>
<!-- 1 -->
<g id="node2" class="node">
<title>1</title>
<path fill="none" stroke="#5673d8" stroke-width="2" d="M289.12,-108C289.12,-108 210.88,-108 210.88,-108 204.88,-108 198.88,-102 198.88,-96 198.88,-96 198.88,-84 198.88,-84 198.88,-78 204.88,-72 210.88,-72 210.88,-72 289.12,-72 289.12,-72 295.12,-72 301.12,-78 301.12,-84 301.12,-84 301.12,-96 301.12,-96 301.12,-102 295.12,-108 289.12,-108"/>
<text text-anchor="middle" x="250" y="-87.62" font-family="sans" font-size="10.00">summarize_results</text>
</g>
<!-- 1&#45;&gt;0 -->
<g id="edge1" class="edge">
<title>1&#45;&gt;0</title>
<path fill="none" stroke="grey" stroke-width="2" d="M250,-71.34C250,-64.75 250,-57.08 250,-49.67"/>
<polygon fill="grey" stroke="grey" stroke-width="2" points="253.5,-49.93 250,-39.93 246.5,-49.93 253.5,-49.93"/>
</g>
<!-- 2 -->
<g id="node3" class="node">
<title>2</title>
<path fill="none" stroke="#56c1d8" stroke-width="2" d="M137.88,-396C137.88,-396 100.12,-396 100.12,-396 94.12,-396 88.12,-390 88.12,-384 88.12,-384 88.12,-372 88.12,-372 88.12,-366 94.12,-360 100.12,-360 100.12,-360 137.88,-360 137.88,-360 143.88,-360 149.88,-366 149.88,-372 149.88,-372 149.88,-384 149.88,-384 149.88,-390 143.88,-396 137.88,-396"/>
<text text-anchor="middle" x="119" y="-375.62" font-family="sans" font-size="10.00">normalize</text>
</g>
<!-- 2&#45;&gt;1 -->
<g id="edge4" class="edge">
<title>2&#45;&gt;1</title>
<path fill="none" stroke="grey" stroke-width="2" d="M107.97,-359.18C83.57,-317.22 30.9,-210.73 80,-144 104.01,-111.37 147.99,-98.26 185.2,-93.23"/>
<polygon fill="grey" stroke="grey" stroke-width="2" points="185.48,-96.72 195.02,-92.11 184.69,-89.77 185.48,-96.72"/>
</g>
<!-- 14 -->
<g id="node15" class="node">
<title>14</title>
<path fill="none" stroke="#d8a456" stroke-width="2" d="M242.38,-324C242.38,-324 189.62,-324 189.62,-324 183.62,-324 177.62,-318 177.62,-312 177.62,-312 177.62,-300 177.62,-300 177.62,-294 183.62,-288 189.62,-288 189.62,-288 242.38,-288 242.38,-288 248.38,-288 254.38,-294 254.38,-300 254.38,-300 254.38,-312 254.38,-312 254.38,-318 248.38,-324 242.38,-324"/>
<text text-anchor="middle" x="216" y="-303.62" font-family="sans" font-size="10.00">get_residuals</text>
</g>
<!-- 2&#45;&gt;14 -->
<g id="edge19" class="edge">
<title>2&#45;&gt;14</title>
<path fill="none" stroke="grey" stroke-width="2" d="M143.73,-359.15C155.02,-351.01 168.59,-341.22 180.9,-332.33"/>
<polygon fill="grey" stroke="grey" stroke-width="2" points="182.8,-335.27 188.86,-326.58 178.71,-329.6 182.8,-335.27"/>
</g>
<!-- 3 -->
<g id="node4" class="node">
<title>3</title>
<path fill="none" stroke="#568ad8" stroke-width="2" d="M226,-468C226,-468 12,-468 12,-468 6,-468 0,-462 0,-456 0,-456 0,-444 0,-444 0,-438 6,-432 12,-432 12,-432 226,-432 226,-432 232,-432 238,-438 238,-444 238,-444 238,-456 238,-456 238,-462 232,-468 226,-468"/>
<text text-anchor="middle" x="119" y="-447.62" font-family="sans" font-size="10.00">remove_metabolites_with_non_imputed_groups</text>
</g>
<!-- 3&#45;&gt;2 -->
<g id="edge6" class="edge">
<title>3&#45;&gt;2</title>
<path fill="none" stroke="grey" stroke-width="2" d="M119,-431.34C119,-424.75 119,-417.08 119,-409.67"/>
<polygon fill="grey" stroke="grey" stroke-width="2" points="122.5,-409.93 119,-399.93 115.5,-409.93 122.5,-409.93"/>
</g>
<!-- 4 -->
<g id="node5" class="node">
<title>4</title>
<path fill="none" stroke="#d6d856" stroke-width="2" d="M163.38,-540C163.38,-540 74.62,-540 74.62,-540 68.62,-540 62.62,-534 62.62,-528 62.62,-528 62.62,-516 62.62,-516 62.62,-510 68.62,-504 74.62,-504 74.62,-504 163.38,-504 163.38,-504 169.38,-504 175.38,-510 175.38,-516 175.38,-516 175.38,-528 175.38,-528 175.38,-534 169.38,-540 163.38,-540"/>
<text text-anchor="middle" x="119" y="-519.62" font-family="sans" font-size="10.00">imp_get_imputations</text>
</g>
<!-- 4&#45;&gt;3 -->
<g id="edge7" class="edge">
<title>4&#45;&gt;3</title>
<path fill="none" stroke="grey" stroke-width="2" d="M119,-503.34C119,-496.75 119,-489.08 119,-481.67"/>
<polygon fill="grey" stroke="grey" stroke-width="2" points="122.5,-481.93 119,-471.93 115.5,-481.93 122.5,-481.93"/>
</g>
<!-- 5 -->
<g id="node6" class="node">
<title>5</title>
<path fill="none" stroke="#59d856" stroke-width="2" d="M164.5,-972C164.5,-972 85.5,-972 85.5,-972 79.5,-972 73.5,-966 73.5,-960 73.5,-960 73.5,-948 73.5,-948 73.5,-942 79.5,-936 85.5,-936 85.5,-936 164.5,-936 164.5,-936 170.5,-936 176.5,-942 176.5,-948 176.5,-948 176.5,-960 176.5,-960 176.5,-966 170.5,-972 164.5,-972"/>
<text text-anchor="middle" x="125" y="-951.62" font-family="sans" font-size="10.00">imp_setup_dataset</text>
</g>
<!-- 5&#45;&gt;4 -->
<g id="edge9" class="edge">
<title>5&#45;&gt;4</title>
<path fill="none" stroke="grey" stroke-width="2" d="M110.53,-935.35C103.1,-925.49 94.48,-912.66 89,-900 72.88,-862.8 69,-851.54 69,-811 69,-811 69,-811 69,-665 69,-624.02 87.76,-579.97 102.29,-551.98"/>
<polygon fill="grey" stroke="grey" stroke-width="2" points="105.29,-553.8 106.96,-543.34 99.13,-550.48 105.29,-553.8"/>
</g>
<!-- 10 -->
<g id="node11" class="node">
<title>10</title>
<path fill="none" stroke="#56d88a" stroke-width="2" d="M255.88,-900C255.88,-900 110.12,-900 110.12,-900 104.12,-900 98.12,-894 98.12,-888 98.12,-888 98.12,-876 98.12,-876 98.12,-870 104.12,-864 110.12,-864 110.12,-864 255.88,-864 255.88,-864 261.88,-864 267.88,-870 267.88,-876 267.88,-876 267.88,-888 267.88,-888 267.88,-894 261.88,-900 255.88,-900"/>
<text text-anchor="middle" x="183" y="-879.62" font-family="sans" font-size="10.00">imp_split_subsets_for_imputation</text>
</g>
<!-- 5&#45;&gt;10 -->
<g id="edge16" class="edge">
<title>5&#45;&gt;10</title>
<path fill="none" stroke="grey" stroke-width="2" d="M139.64,-935.34C145.77,-927.93 153.05,-919.14 159.88,-910.9"/>
<polygon fill="grey" stroke="grey" stroke-width="2" points="162.55,-913.17 166.24,-903.23 157.16,-908.7 162.55,-913.17"/>
</g>
<!-- 6 -->
<g id="node7" class="node">
<title>6</title>
<path fill="none" stroke="#56d873" stroke-width="2" d="M239.75,-612C239.75,-612 120.25,-612 120.25,-612 114.25,-612 108.25,-606 108.25,-600 108.25,-600 108.25,-588 108.25,-588 108.25,-582 114.25,-576 120.25,-576 120.25,-576 239.75,-576 239.75,-576 245.75,-576 251.75,-582 251.75,-588 251.75,-588 251.75,-600 251.75,-600 251.75,-606 245.75,-612 239.75,-612"/>
<text text-anchor="middle" x="180" y="-591.62" font-family="sans" font-size="10.00">imp_split_imputed_datasets</text>
</g>
<!-- 6&#45;&gt;4 -->
<g id="edge8" class="edge">
<title>6&#45;&gt;4</title>
<path fill="none" stroke="grey" stroke-width="2" d="M164.61,-575.34C158.08,-567.85 150.33,-558.95 143.08,-550.63"/>
<polygon fill="grey" stroke="grey" stroke-width="2" points="145.8,-548.42 136.59,-543.18 140.52,-553.02 145.8,-548.42"/>
</g>
<!-- 7 -->
<g id="node8" class="node">
<title>7</title>
<path fill="none" stroke="#a7d856" stroke-width="2" d="M266.38,-684C266.38,-684 219.62,-684 219.62,-684 213.62,-684 207.62,-678 207.62,-672 207.62,-672 207.62,-660 207.62,-660 207.62,-654 213.62,-648 219.62,-648 219.62,-648 266.38,-648 266.38,-648 272.38,-648 278.38,-654 278.38,-660 278.38,-660 278.38,-672 278.38,-672 278.38,-678 272.38,-684 266.38,-684"/>
<text text-anchor="middle" x="243" y="-663.62" font-family="sans" font-size="10.00">imp_impute</text>
</g>
<!-- 7&#45;&gt;6 -->
<g id="edge10" class="edge">
<title>7&#45;&gt;6</title>
<path fill="none" stroke="grey" stroke-width="2" d="M227.1,-647.34C220.29,-639.77 212.18,-630.75 204.62,-622.35"/>
<polygon fill="grey" stroke="grey" stroke-width="2" points="207.43,-620.24 198.14,-615.15 202.22,-624.93 207.43,-620.24"/>
</g>
<!-- 8 -->
<g id="node9" class="node">
<title>8</title>
<path fill="none" stroke="#88d856" stroke-width="2" d="M272.5,-756C272.5,-756 109.5,-756 109.5,-756 103.5,-756 97.5,-750 97.5,-744 97.5,-744 97.5,-732 97.5,-732 97.5,-726 103.5,-720 109.5,-720 109.5,-720 272.5,-720 272.5,-720 278.5,-720 284.5,-726 284.5,-732 284.5,-732 284.5,-744 284.5,-744 284.5,-750 278.5,-756 272.5,-756"/>
<text text-anchor="middle" x="191" y="-735.62" font-family="sans" font-size="10.00">imp_prepare_dataset_for_imputation</text>
</g>
<!-- 8&#45;&gt;6 -->
<g id="edge11" class="edge">
<title>8&#45;&gt;6</title>
<path fill="none" stroke="grey" stroke-width="2" d="M189.61,-719.02C187.79,-695.54 184.58,-654.11 182.37,-625.64"/>
<polygon fill="grey" stroke="grey" stroke-width="2" points="185.88,-625.56 181.62,-615.86 178.9,-626.1 185.88,-625.56"/>
</g>
<!-- 8&#45;&gt;7 -->
<g id="edge13" class="edge">
<title>8&#45;&gt;7</title>
<path fill="none" stroke="grey" stroke-width="2" d="M204.12,-719.34C209.56,-712.01 216.01,-703.34 222.07,-695.18"/>
<polygon fill="grey" stroke="grey" stroke-width="2" points="224.74,-697.45 227.9,-687.33 219.12,-693.27 224.74,-697.45"/>
</g>
<!-- 9 -->
<g id="node10" class="node">
<title>9</title>
<path fill="none" stroke="#70d856" stroke-width="2" d="M262.12,-828C262.12,-828 111.88,-828 111.88,-828 105.88,-828 99.88,-822 99.88,-816 99.88,-816 99.88,-804 99.88,-804 99.88,-798 105.88,-792 111.88,-792 111.88,-792 262.12,-792 262.12,-792 268.12,-792 274.12,-798 274.12,-804 274.12,-804 274.12,-816 274.12,-816 274.12,-822 268.12,-828 262.12,-828"/>
<text text-anchor="middle" x="187" y="-807.62" font-family="sans" font-size="10.00">imp_remove_outliers_and_missing</text>
</g>
<!-- 9&#45;&gt;8 -->
<g id="edge14" class="edge">
<title>9&#45;&gt;8</title>
<path fill="none" stroke="grey" stroke-width="2" d="M188.01,-791.34C188.39,-784.75 188.82,-777.08 189.25,-769.67"/>
<polygon fill="grey" stroke="grey" stroke-width="2" points="192.73,-770.11 189.8,-759.92 185.74,-769.71 192.73,-770.11"/>
</g>
<!-- 10&#45;&gt;9 -->
<g id="edge15" class="edge">
<title>10&#45;&gt;9</title>
<path fill="none" stroke="grey" stroke-width="2" d="M184.01,-863.34C184.39,-856.75 184.82,-849.08 185.25,-841.67"/>
<polygon fill="grey" stroke="grey" stroke-width="2" points="188.73,-842.11 185.8,-831.92 181.74,-841.71 188.73,-842.11"/>
</g>
<!-- 11 -->
<g id="node12" class="node">
<title>11</title>
<path fill="none" stroke="#d8bc56" stroke-width="2" d="M457.75,-756C457.75,-756 314.25,-756 314.25,-756 308.25,-756 302.25,-750 302.25,-744 302.25,-744 302.25,-732 302.25,-732 302.25,-726 308.25,-720 314.25,-720 314.25,-720 457.75,-720 457.75,-720 463.75,-720 469.75,-726 469.75,-732 469.75,-732 469.75,-744 469.75,-744 469.75,-750 463.75,-756 457.75,-756"/>
<text text-anchor="middle" x="386" y="-735.62" font-family="sans" font-size="10.00">imp_download_imputation_script</text>
</g>
<!-- 11&#45;&gt;7 -->
<g id="edge12" class="edge">
<title>11&#45;&gt;7</title>
<path fill="none" stroke="grey" stroke-width="2" d="M349.55,-719.15C331.59,-710.37 309.72,-699.66 290.48,-690.24"/>
<polygon fill="grey" stroke="grey" stroke-width="2" points="292.13,-687.15 281.61,-685.9 289.05,-693.44 292.13,-687.15"/>
</g>
<!-- 12 -->
<g id="node13" class="node">
<title>12</title>
<path fill="none" stroke="#56d8d8" stroke-width="2" d="M252.5,-180C252.5,-180 101.5,-180 101.5,-180 95.5,-180 89.5,-174 89.5,-168 89.5,-168 89.5,-156 89.5,-156 89.5,-150 95.5,-144 101.5,-144 101.5,-144 252.5,-144 252.5,-144 258.5,-144 264.5,-150 264.5,-156 264.5,-156 264.5,-168 264.5,-168 264.5,-174 258.5,-180 252.5,-180"/>
<text text-anchor="middle" x="177" y="-159.62" font-family="sans" font-size="10.00">merge_boruta_across_imputations</text>
</g>
<!-- 12&#45;&gt;1 -->
<g id="edge2" class="edge">
<title>12&#45;&gt;1</title>
<path fill="none" stroke="grey" stroke-width="2" d="M195.42,-143.34C203.49,-135.6 213.13,-126.36 222.04,-117.81"/>
<polygon fill="grey" stroke="grey" stroke-width="2" points="224.35,-120.44 229.15,-111 219.51,-115.39 224.35,-120.44"/>
</g>
<!-- 13 -->
<g id="node14" class="node">
<title>13</title>
<path fill="none" stroke="#d86e56" stroke-width="2" d="M204,-252C204,-252 174,-252 174,-252 168,-252 162,-246 162,-240 162,-240 162,-228 162,-228 162,-222 168,-216 174,-216 174,-216 204,-216 204,-216 210,-216 216,-222 216,-228 216,-228 216,-240 216,-240 216,-246 210,-252 204,-252"/>
<text text-anchor="middle" x="189" y="-231.62" font-family="sans" font-size="10.00">boruta</text>
</g>
<!-- 13&#45;&gt;12 -->
<g id="edge17" class="edge">
<title>13&#45;&gt;12</title>
<path fill="none" stroke="grey" stroke-width="2" d="M185.97,-215.34C184.84,-208.75 183.53,-201.08 182.26,-193.67"/>
<polygon fill="grey" stroke="grey" stroke-width="2" points="185.72,-193.15 180.58,-183.89 178.82,-194.33 185.72,-193.15"/>
</g>
<!-- 14&#45;&gt;13 -->
<g id="edge18" class="edge">
<title>14&#45;&gt;13</title>
<path fill="none" stroke="grey" stroke-width="2" d="M209.19,-287.34C206.55,-280.51 203.46,-272.5 200.51,-264.83"/>
<polygon fill="grey" stroke="grey" stroke-width="2" points="203.86,-263.8 196.99,-255.73 197.33,-266.32 203.86,-263.8"/>
</g>
<!-- 15 -->
<g id="node16" class="node">
<title>15</title>
<path fill="none" stroke="#56d8c1" stroke-width="2" d="M353.38,-180C353.38,-180 294.62,-180 294.62,-180 288.62,-180 282.62,-174 282.62,-168 282.62,-168 282.62,-156 282.62,-156 282.62,-150 288.62,-144 294.62,-144 294.62,-144 353.38,-144 353.38,-144 359.38,-144 365.38,-150 365.38,-156 365.38,-156 365.38,-168 365.38,-168 365.38,-174 359.38,-180 353.38,-180"/>
<text text-anchor="middle" x="324" y="-159.62" font-family="sans" font-size="10.00">mann_whitney</text>
</g>
<!-- 14&#45;&gt;15 -->
<g id="edge20" class="edge">
<title>14&#45;&gt;15</title>
<path fill="none" stroke="grey" stroke-width="2" d="M229.68,-287.02C248.1,-262.8 281.06,-219.45 302.73,-190.96"/>
<polygon fill="grey" stroke="grey" stroke-width="2" points="305.33,-193.33 308.6,-183.25 299.76,-189.09 305.33,-193.33"/>
</g>
<!-- 16 -->
<g id="node17" class="node">
<title>16</title>
<path fill="none" stroke="#d88d56" stroke-width="2" d="M409.25,-252C409.25,-252 352.75,-252 352.75,-252 346.75,-252 340.75,-246 340.75,-240 340.75,-240 340.75,-228 340.75,-228 340.75,-222 346.75,-216 352.75,-216 352.75,-216 409.25,-216 409.25,-216 415.25,-216 421.25,-222 421.25,-228 421.25,-228 421.25,-240 421.25,-240 421.25,-246 415.25,-252 409.25,-252"/>
<text text-anchor="middle" x="381" y="-231.62" font-family="sans" font-size="10.00">get_ROC_AUC</text>
</g>
<!-- 14&#45;&gt;16 -->
<g id="edge21" class="edge">
<title>14&#45;&gt;16</title>
<path fill="none" stroke="grey" stroke-width="2" d="M255.1,-288.41C276.85,-279.18 304.23,-267.57 327.89,-257.53"/>
<polygon fill="grey" stroke="grey" stroke-width="2" points="329.25,-260.76 337.09,-253.63 326.52,-254.31 329.25,-260.76"/>
</g>
<!-- 15&#45;&gt;1 -->
<g id="edge3" class="edge">
<title>15&#45;&gt;1</title>
<path fill="none" stroke="grey" stroke-width="2" d="M305.33,-143.34C297.15,-135.6 287.38,-126.36 278.34,-117.81"/>
<polygon fill="grey" stroke="grey" stroke-width="2" points="280.79,-115.31 271.12,-110.98 275.98,-120.4 280.79,-115.31"/>
</g>
<!-- 16&#45;&gt;1 -->
<g id="edge5" class="edge">
<title>16&#45;&gt;1</title>
<path fill="none" stroke="grey" stroke-width="2" d="M384.63,-215.13C387.51,-195.74 388.91,-164.77 374,-144 359.83,-124.26 336.77,-111.82 314.36,-104"/>
<polygon fill="grey" stroke="grey" stroke-width="2" points="315.51,-100.69 304.92,-101.02 313.4,-107.37 315.51,-100.69"/>
</g>
</g>
</svg>
